<svg width="1135" height="1235" viewBox="0 0 1135 1235" fill="none" xmlns="http://www.w3.org/2000/svg">
<path d="M1009.98 783.062C1008.19 783.032 1006.03 775.876 1004.79 774.591C1003.54 773.305 996.461 770.904 996.491 769.116C996.521 767.328 1003.68 765.166 1004.97 763.922C1006.25 762.679 1008.65 755.6 1010.44 755.63C1012.23 755.66 1014.4 762.815 1015.64 764.101C1016.88 765.387 1023.97 767.787 1023.94 769.576C1023.91 771.364 1016.75 773.526 1015.46 774.769C1014.18 776.013 1011.77 783.091 1009.98 783.062Z" fill="#F28DFD"/>
<path d="M970.395 540.847C968.283 540.812 965.73 532.366 964.262 530.848C962.793 529.331 954.433 526.497 954.469 524.386C954.504 522.276 962.954 519.724 964.473 518.256C965.991 516.788 968.826 508.433 970.938 508.468C973.05 508.504 975.604 516.949 977.072 518.467C978.54 519.985 986.9 522.818 986.865 524.929C986.83 527.04 978.379 529.592 976.861 531.059C975.342 532.527 972.507 540.882 970.395 540.847Z" fill="#C2F5FF"/>
<circle cx="-60" cy="-51" r="266" fill="#C2F5FF"/>
<circle cx="1029" cy="187" r="106" fill="#0095C3" fill-opacity="0.7"/>
<circle cx="939" cy="1021" r="105" stroke="#007EA2" stroke-width="19"/>
<path d="M138 884C138 973.47 65.4701 1046 -24.0001 1046C-113.47 1046 -186 973.47 -186 884C-186 794.53 -113.47 722 -24.0001 722C65.4701 722 138 794.53 138 884Z" stroke="#B6EAF4" stroke-width="24"/>
<path d="M278 1061C278 1150.47 205.47 1223 116 1223C26.5298 1223 -46.0001 1150.47 -46.0001 1061C-46.0001 971.53 26.5298 899 116 899C205.47 899 278 971.53 278 1061Z" stroke="#8663F5" stroke-width="24"/>
<circle cx="455" cy="934" r="80" fill="#8663F5"/>
<circle cx="819" cy="940" r="106" stroke="#C2F5FF" stroke-width="19"/>
</svg>
