<svg viewBox="0 0 1920 458" fill="none" xmlns="http://www.w3.org/2000/svg">
<path d="M1009.98 49.0615C1008.19 49.0315 1006.03 41.8763 1004.79 40.5906C1003.54 39.3049 996.461 36.9043 996.491 35.116C996.521 33.3278 1003.68 31.1657 1004.97 29.9224C1006.25 28.679 1008.65 21.6003 1010.44 21.6302C1012.23 21.6602 1014.4 28.8154 1015.64 30.1011C1016.88 31.3868 1023.97 33.7874 1023.94 35.5757C1023.91 37.364 1016.75 39.5261 1015.46 40.7694C1014.18 42.0127 1011.77 49.0915 1009.98 49.0615Z" fill="#F28DFD"/>
<circle cx="1065" cy="287" r="105" stroke="#007EA2" stroke-width="15"/>
<path d="M119 152.5C119 230.096 56.096 293 -21.5001 293C-99.0961 293 -162 230.096 -162 152.5C-162 74.904 -99.0961 12 -21.5001 12C56.096 12 119 74.904 119 152.5Z" stroke="#B6EAF4" stroke-width="24"/>
<path d="M240 305.5C240 383.096 177.096 446 99.4999 446C21.9039 446 -41 383.096 -41 305.5C-41 227.904 21.9039 165 99.4999 165C177.096 165 240 227.904 240 305.5Z" stroke="#8663F5" stroke-width="24"/>
<circle cx="403.5" cy="193.5" r="63.5" fill="#8663F5"/>
<circle cx="950" cy="205" r="101" stroke="#C2F5FF" stroke-width="15"/>
<path d="M866.395 64.847C864.283 64.8116 861.73 56.3659 860.262 54.8483C858.793 53.3308 850.433 50.4972 850.469 48.3864C850.504 46.2756 858.954 43.7236 860.473 42.256C861.991 40.7885 864.826 32.433 866.938 32.4684C869.05 32.5038 871.604 40.9495 873.072 42.467C874.54 43.9846 882.9 46.8181 882.865 48.929C882.83 51.0398 874.379 53.5918 872.861 55.0594C871.342 56.5269 868.507 64.8823 866.395 64.847Z" fill="#C2F5FF"/>
</svg>
