<svg viewBox="0 0 1920 1235" fill="none" xmlns="http://www.w3.org/2000/svg">
<path d="M1009.98 783.062C1008.19 783.032 1006.03 775.876 1004.79 774.591C1003.54 773.305 996.461 770.904 996.491 769.116C996.521 767.328 1003.68 765.166 1004.97 763.922C1006.25 762.679 1008.65 755.6 1010.44 755.63C1012.23 755.66 1014.4 762.815 1015.64 764.101C1016.88 765.387 1023.97 767.787 1023.94 769.576C1023.91 771.364 1016.75 773.526 1015.46 774.769C1014.18 776.013 1011.77 783.091 1009.98 783.062Z" fill="#F28DFD"/>
<circle cx="-60" cy="-51" r="266" fill="#C2F5FF"/>
<circle cx="961.5" cy="195.5" r="94.5" fill="#0095C3" fill-opacity="0.7"/>
<circle cx="939" cy="1021" r="105" stroke="#007EA2" stroke-width="15"/>
<circle cx="1833" cy="89" r="87" stroke="#007EA2" stroke-width="10"/>
<path d="M138 884C138 973.47 65.4701 1046 -24.0001 1046C-113.47 1046 -186 973.47 -186 884C-186 794.53 -113.47 722 -24.0001 722C65.4701 722 138 794.53 138 884Z" stroke="#B6EAF4" stroke-width="24"/>
<path d="M278 1061C278 1150.47 205.47 1223 116 1223C26.5298 1223 -46.0001 1150.47 -46.0001 1061C-46.0001 971.53 26.5298 899 116 899C205.47 899 278 971.53 278 1061Z" stroke="#8663F5" stroke-width="24"/>
<circle cx="455" cy="934" r="80" fill="#8663F5"/>
<circle cx="819" cy="940" r="106" stroke="#C2F5FF" stroke-width="15"/>
<path d="M1878 192C1878 233.421 1844.42 267 1803 267C1761.58 267 1728 233.421 1728 192C1728 150.579 1761.58 117 1803 117C1844.42 117 1878 150.579 1878 192Z" stroke="#8663F5" stroke-width="10"/>
<path d="M866.395 798.847C864.283 798.812 861.73 790.366 860.262 788.848C858.793 787.331 850.433 784.497 850.469 782.386C850.504 780.276 858.954 777.724 860.473 776.256C861.991 774.788 864.826 766.433 866.938 766.468C869.05 766.504 871.604 774.949 873.072 776.467C874.54 777.985 882.9 780.818 882.865 782.929C882.83 785.04 874.379 787.592 872.861 789.059C871.342 790.527 868.507 798.882 866.395 798.847Z" fill="#C2F5FF"/>
</svg>
