<svg width="230" height="230" viewBox="0 0 230 230" fill="none" xmlns="http://www.w3.org/2000/svg">
<path d="M154.221 101.111C163.092 101.376 170.516 94.1475 170.516 85.2565C170.516 80.7041 168.589 76.4846 165.349 73.5346C163.513 83.0199 159.63 92.6322 154.221 101.111ZM154.654 109.049C151.83 109.049 148.975 108.502 146.167 107.428C145.002 106.979 144.113 106.016 143.772 104.818C143.427 103.621 143.669 102.332 144.419 101.336C152.108 91.1449 157.188 78.4792 158.361 66.5785C158.484 65.3251 159.194 64.203 160.273 63.5606C161.355 62.9142 162.68 62.823 163.842 63.3068C172.713 67.0223 178.447 75.6396 178.447 85.2561C178.447 98.3782 167.776 109.049 154.654 109.049Z" fill="#E9E9E9"/>
<path d="M217.477 196.291C217.477 184.719 220.625 173.905 226.034 164.566H79.3105H31.7243C14.2757 164.567 0 178.843 0 196.291C0 213.739 14.2757 228.015 31.7243 228.015H79.3105H226.035C220.626 218.676 217.477 207.862 217.477 196.291Z" fill="#687492"/>
<path d="M198.276 200.257H79.3104C77.1173 200.257 75.3447 198.484 75.3447 196.291C75.3447 194.098 77.1173 192.325 79.3104 192.325H198.276C200.469 192.325 202.242 194.098 202.242 196.291C202.241 198.484 200.469 200.257 198.276 200.257Z" fill="#38454F"/>
<path d="M83.2758 216.119H31.7243C20.7913 216.119 11.8967 207.224 11.8967 196.291C11.8967 185.358 20.7913 176.463 31.7243 176.463H122.931C125.124 176.463 126.897 178.236 126.897 180.429C126.897 182.622 125.124 184.395 122.931 184.395H31.7243C25.1653 184.395 19.8277 189.732 19.8277 196.291C19.8277 202.85 25.1653 208.188 31.7243 208.188H83.2762C85.4693 208.188 87.2419 209.961 87.2419 212.154C87.2419 214.347 85.4689 216.119 83.2758 216.119Z" fill="#38454F"/>
<path d="M198.276 184.395H142.759C140.566 184.395 138.793 182.622 138.793 180.429C138.793 178.236 140.566 176.463 142.759 176.463H198.276C200.469 176.463 202.242 178.236 202.242 180.429C202.242 182.622 200.469 184.395 198.276 184.395Z" fill="#38454F"/>
<path d="M142.759 216.118H103.103C100.91 216.118 99.1377 214.346 99.1377 212.153C99.1377 209.96 100.91 208.187 103.103 208.187H142.759C144.952 208.187 146.724 209.96 146.724 212.153C146.724 214.346 144.952 216.118 142.759 216.118Z" fill="#38454F"/>
<path d="M198.276 216.118H162.586C160.393 216.118 158.62 214.346 158.62 212.153C158.62 209.96 160.393 208.187 162.586 208.187H198.276C200.469 208.187 202.241 209.96 202.241 212.153C202.241 214.346 200.469 216.118 198.276 216.118Z" fill="#38454F"/>
<path d="M59.4828 200.257H35.6895C33.4964 200.257 31.7238 198.484 31.7238 196.291C31.7238 194.098 33.4964 192.325 35.6895 192.325H59.4828C61.6759 192.325 63.4485 194.098 63.4485 196.291C63.448 198.484 61.6754 200.257 59.4828 200.257Z" fill="#38454F"/>
<path d="M166.552 61.4634C166.552 89.9358 143.472 124.911 115 124.911C86.5275 124.911 63.448 89.9358 63.448 61.4634H166.552Z" fill="#E6E6E6"/>
<path d="M115 113.015C100.411 113.015 88.3994 99.6035 82.0227 87.0568C81.0313 85.1059 81.8085 82.7147 83.7594 81.7232C85.7104 80.7359 88.0975 81.513 89.093 83.464C95.767 96.5978 105.939 105.084 115 105.084C117.193 105.084 118.966 106.857 118.966 109.05C118.966 111.242 117.193 113.015 115 113.015Z" fill="#E9E9E9"/>
<path d="M0 164.566H230V124.911H0V164.566Z" fill="#BAC5F4"/>
<path d="M31.7242 164.566H55.5171V124.911H31.7242V164.566Z" fill="#7B5BF6"/>
<path d="M158.62 148.705H83.2756C81.0826 148.705 79.3099 146.932 79.3099 144.739C79.3099 142.546 81.0826 140.773 83.2756 140.773H158.62C160.813 140.773 162.586 142.546 162.586 144.739C162.586 146.932 160.813 148.705 158.62 148.705Z" fill="#7B5BF6"/>
<path d="M190.345 164.566H206.207V124.911H190.345V164.566Z" fill="#7B5BF6"/>
<path d="M115 41.6356C113.933 41.6356 112.874 41.2111 112.097 40.3706C108.659 36.6709 107.002 32.8125 107.164 28.9061C107.318 25.2854 109.103 21.8197 112.327 18.8773C113.442 17.743 114.944 15.7764 114.916 13.6906C114.893 12.1085 114 10.4706 112.267 8.82111C110.677 7.30634 110.618 4.79611 112.125 3.21396C113.643 1.62777 116.154 1.57207 117.732 3.07111C121.023 6.20396 122.788 9.8323 122.847 13.5716C122.903 17.3985 121.166 21.2133 117.819 24.5959C116.019 26.2454 115.15 27.7566 115.087 29.2354C115 31.3728 116.57 33.534 117.903 34.9697C119.394 36.5797 119.303 39.0818 117.701 40.5728C116.935 41.283 115.968 41.6356 115 41.6356Z" fill="#E9E9E9"/>
<path d="M142.759 41.6356C141.692 41.6356 140.633 41.2111 139.856 40.3706C136.417 36.6709 134.76 32.8125 134.922 28.9061C135.077 25.2854 136.862 21.8197 140.086 18.8773C141.2 17.743 142.703 15.7764 142.675 13.6906C142.651 12.1085 141.759 10.4706 140.026 8.82111C138.436 7.30634 138.377 4.79611 139.883 3.21396C141.402 1.62777 143.912 1.57207 145.49 3.07111C148.782 6.20396 150.546 9.8323 150.606 13.5716C150.662 17.3985 148.925 21.2133 145.578 24.5959C143.777 26.2454 142.909 27.7566 142.846 29.2354C142.759 31.3728 144.329 33.534 145.661 34.9697C147.152 36.5797 147.061 39.0818 145.459 40.5728C144.694 41.283 143.726 41.6356 142.759 41.6356Z" fill="#E9E9E9"/>
<path d="M87.2414 41.6356C86.1745 41.6356 85.1157 41.2111 84.3386 40.3706C80.9003 36.6709 79.2431 32.8125 79.4053 28.9061C79.5598 25.2854 81.3445 21.8197 84.5686 18.8773C85.6831 17.743 87.1857 15.7764 87.1579 13.6906C87.1341 12.1085 86.2419 10.4706 84.5088 8.82111C82.9186 7.30634 82.8593 4.79611 84.366 3.21396C85.8888 1.62777 88.395 1.57207 89.9731 3.07111C93.2645 6.20396 95.0291 9.8323 95.0888 13.5716C95.1445 17.3985 93.4074 21.2133 90.0607 24.5959C88.2603 26.2454 87.3919 27.7566 87.3286 29.2354C87.2414 31.3728 88.8119 33.534 90.1443 34.9697C91.6352 36.5797 91.544 39.0818 89.9421 40.5728C89.1767 41.283 88.209 41.6356 87.2414 41.6356Z" fill="#E9E9E9"/>
</svg>
