<svg width="862" height="520" viewBox="0 0 862 520" fill="none" xmlns="http://www.w3.org/2000/svg">
<g clip-path="url(#clip0)">
<path d="M57.876 330.797C57.876 330.797 -77.0578 219.018 93.0335 166.198C177.857 139.872 197.794 126.331 263.748 75.3615C358.095 2.35581 481.725 -39.7823 642.47 88.9029C803.216 217.588 924.532 257.455 818.703 334.582C699.702 421.298 772.153 465.875 757.2 490.35C753.194 496.827 728.095 469.071 672.733 497.668C546.61 562.851 482.437 463.688 389.692 488.416C302.199 511.798 257.25 460.155 228.768 480.341C186.312 510.452 159.699 510.031 143.767 502.125C130.416 495.481 122.584 481.771 123.207 467.389C123.919 451.072 124.008 420.457 117.065 398.168C106.563 364.525 80.8396 347.367 57.876 330.797Z" fill="#3EA9BE"/>
<path d="M52.2692 330.719C52.2692 330.719 -83.9996 216.584 87.7828 162.587C173.407 135.672 193.522 121.879 260.099 69.7317C355.336 -4.78794 480.123 -47.9353 642.293 83.5254C804.463 214.986 930.941 260.993 820.128 334.588C743.404 385.557 769.394 360.661 745.54 378.156C694.807 415.163 579.454 345.606 485.82 370.922C397.525 394.725 311.634 359.147 273.272 356.708C258.052 355.783 196.727 355.531 165.841 354.017C148.574 353.176 129.527 360.325 105.495 354.942C69.3585 346.783 75.4999 347.624 52.2692 330.719Z" fill="#89E6F7"/>
<path d="M205.805 119.938L161.568 148.114C160.945 148.451 159.966 142.479 159.343 142.732L129.259 153.666L128.903 357.964L317.152 355.777L315.728 78.8936L258.407 79.3141L205.805 119.938Z" fill="#E9EDFB"/>
<path d="M191.208 126.583L145.103 147.946L145.014 153.666L298.55 152.824L297.927 100.594L231.706 99.7524L216.931 110.434C214.35 112.285 211.146 114.303 207.141 116.826C200.465 120.948 196.46 123.723 191.208 126.583Z" fill="#B0C0F4"/>
<path d="M145.103 162.16V213.718L298.817 213.466V162.16H145.103Z" fill="#B0C0F4"/>
<path d="M145.548 222.97V274.528L299.173 274.192L299.262 222.97H145.548Z" fill="#B0C0F4"/>
<path d="M146.349 284.621V336.179L300.063 335.927V284.621H146.349Z" fill="#B0C0F4"/>
<path d="M198.595 252.24L205.804 243.325L232.595 265.866L225.831 275.034L198.595 252.24Z" fill="#EFFDFF"/>
<path d="M145.458 232.979L162.814 233.063L162.903 274.613L145.547 274.444L145.458 232.979Z" fill="#EFFDFF"/>
<path d="M183.375 240.044L190.496 236.259L208.564 270.407L201.533 274.948L183.375 240.044Z" fill="#F5F5FC"/>
<path d="M175.009 228.438H183.463L183.641 274.781L175.009 274.529V228.438Z" fill="#EFFDFF"/>
<path d="M162.903 242.567L175.185 242.82L175.007 274.697L162.725 274.444L162.903 242.567Z" fill="#F5F5FC"/>
<path d="M230.193 232.896L247.46 232.98L247.638 274.529L230.193 274.276V232.896Z" fill="#EFFDFF"/>
<path d="M259.742 228.353H268.108L268.375 274.612L259.653 274.444L259.742 228.353Z" fill="#EFFDFF"/>
<path d="M247.638 242.482L259.921 242.651L259.654 274.528L247.371 274.359L247.638 242.482Z" fill="#F5F5FC"/>
<path d="M146.349 288.91L159.611 288.994L159.7 336.599L146.438 336.347L146.349 288.91Z" fill="#EFFDFF"/>
<path d="M159.611 296.06L168.6 295.976L168.333 336.432L159.433 336.348L159.611 296.06Z" fill="#F5F5FC"/>
<path d="M168.6 304.387L180.794 304.555L180.527 336.432L168.244 336.264L168.6 304.387Z" fill="#EFFDFF"/>
<path d="M243.366 146.685V152.656L292.497 152.993V146.685H243.366Z" fill="#F5F5FC"/>
<path d="M243.277 141.974L243.455 146.769L275.497 146.937L275.23 141.806L243.277 141.974Z" fill="#EFFDFF"/>
<path d="M145.191 172.169L162.547 172.253L162.636 213.802L145.191 213.55V172.169Z" fill="#EFFDFF"/>
<path d="M280.214 178.814L272.915 175.029L254.135 209.177L261.522 213.634L280.214 178.814Z" fill="#F5F5FC"/>
<path d="M290.539 167.207H298.994L299.172 213.466L290.539 213.298V167.207Z" fill="#EFFDFF"/>
<path d="M278.967 181.588L291.249 181.757L291.071 213.634L278.789 213.465L278.967 181.588Z" fill="#F5F5FC"/>
<path d="M196.281 207.663V213.635L245.413 213.971V207.663H196.281Z" fill="#F5F5FC"/>
<path d="M203.935 202.784L204.202 207.579L236.245 207.747L235.978 202.616L203.935 202.784Z" fill="#EFFDFF"/>
<path d="M670.596 417.091C670.596 417.091 655.821 433.576 667.926 433.997C680.031 434.418 704.863 447.707 709.581 435.847C714.298 423.988 723.822 418.017 718.036 416.671C712.251 415.325 707 409.774 694.806 410.699C682.612 411.624 670.596 417.091 670.596 417.091Z" fill="#F5F5FC"/>
<path d="M666.77 336.936C666.77 336.936 659.827 337.609 659.827 345.767C659.827 353.926 664.277 424.072 681.189 425.502C692.136 426.427 703.796 426.343 709.582 425.838C712.074 425.586 714.477 418.521 714.922 415.661C717.147 401.699 719.995 367.719 720.618 347.954C720.707 343.917 717.859 338.618 716.346 337.272C707.891 329.955 666.77 336.936 666.77 336.936Z" fill="#FFE6AD"/>
<path d="M748.565 201.185C745.894 198.83 742.156 202.027 743.58 205.307C744.915 208.503 745.894 213.97 740.465 219.857C732.098 229.025 701.925 259.977 702.281 279.911C702.637 299.844 696.051 305.395 702.281 312.965C708.512 320.535 733.612 320.282 740.198 304.134C746.784 287.985 763.429 281.509 763.073 258.463C762.717 235.417 759.868 225.325 756.842 217.418C755.062 212.456 752.036 204.297 748.565 201.185Z" fill="#E9EDFB"/>
<path d="M702.906 333.992C702.906 333.992 705.576 297.91 735.393 282.182C754.084 272.341 755.331 238.193 750.88 230.456" stroke="#EFFDFF" stroke-width="0.862295" stroke-linecap="round" stroke-linejoin="round"/>
<path d="M706.732 349.132C706.732 349.132 716.166 384.625 705.931 412.801Z" fill="#FDCE62"/>
<path d="M728.183 193.364C725.335 191.093 721.33 194.121 722.843 197.317C724.267 200.345 725.246 205.644 719.549 211.279C710.56 220.026 678.339 249.632 678.607 268.725C678.874 287.817 678.607 298.92 685.282 306.153C691.957 313.386 707.534 307.583 714.565 292.191C721.597 276.799 744.115 270.239 743.759 248.118C743.403 226.082 740.288 216.41 737.084 208.84C735.126 204.046 731.921 196.308 728.183 193.364Z" fill="#74C8CB"/>
<path d="M690.444 334.75C690.444 334.75 679.942 285.715 705.486 256.193C715.722 244.418 730.853 220.783 730.764 209.345" stroke="#EFFDFF" stroke-width="0.862295" stroke-linecap="round" stroke-linejoin="round"/>
<path d="M648.522 201.185C651.103 198.83 654.842 202.027 653.506 205.307C652.171 208.503 651.281 213.97 656.622 219.857C664.899 229.025 694.805 259.977 694.538 279.911C694.271 299.844 694.538 311.451 688.308 319.105C682.078 326.759 667.747 320.619 661.25 304.47C654.753 288.321 633.925 281.509 634.192 258.463C634.459 235.417 637.396 225.325 640.333 217.418C642.114 212.456 645.051 204.297 648.522 201.185Z" fill="#E9EDFB"/>
<path d="M682.077 335.59C682.077 335.59 694.093 291.013 670.417 261.575C660.983 249.8 645.762 232.306 645.94 220.951" stroke="#EFFDFF" stroke-width="0.862295" stroke-linecap="round" stroke-linejoin="round"/>
<path d="M629.297 278.902C629.297 278.902 604.553 279.406 591.202 251.062C577.851 222.718 607.936 216.914 630.009 232.138C652.083 247.361 643.093 253.669 669.439 267.715C695.785 281.761 690.089 309.601 681.9 317.003C673.711 324.404 658.224 335.927 647.899 305.816C637.575 275.706 629.297 278.902 629.297 278.902Z" fill="#009BA0"/>
<path d="M677.361 335.927C677.361 335.927 679.142 264.94 604.643 245.427" stroke="#EFFDFF" stroke-width="0.862295" stroke-linecap="round" stroke-linejoin="round"/>
<path d="M666.768 336.937C666.768 336.937 697.12 332.311 708.958 334.75C720.795 337.189 688.041 340.049 688.041 340.049C688.041 340.049 672.376 340.722 666.768 336.937Z" fill="#FDCE62"/>
<path d="M298.817 344.422C298.817 344.422 264.638 318.937 258.853 293.957C253.067 268.977 265.617 251.651 283.863 248.959C302.11 246.268 313.236 238.025 377.231 258.548C441.227 279.07 514.924 242.651 514.924 242.651C514.924 242.651 575.093 216.494 604.821 222.886C638.643 230.119 645.853 249.464 636.685 284.032C627.517 318.601 596.365 344.758 596.365 344.758L298.817 344.422Z" fill="#BAC5F4"/>
<path d="M283.33 341.73C283.33 341.73 277.989 341.73 277.099 346.777C276.209 351.823 277.989 367.804 280.659 372.85C283.33 377.897 295.879 377.645 295.879 377.645L601.083 377.056C601.083 377.056 611.229 377.14 613.544 369.486C615.413 363.346 618.083 357.206 618.35 352.917C618.617 347.87 614.79 343.497 609.538 342.824C606.245 342.403 602.863 342.235 599.569 342.235C576.339 342.235 283.33 341.73 283.33 341.73Z" fill="#BAC5F4"/>
<path d="M269.088 419.951L289.56 377.897H305.581L284.219 419.951H269.088Z" fill="#EFFDFF"/>
<path d="M584.172 377.897L602.863 420.792L616.214 419.951L598.413 377.897H584.172Z" fill="#EFFDFF"/>
<path d="M304.068 342.236C304.068 342.236 275.942 321.714 274.607 313.219C272.916 302.117 283.508 285.631 324.629 292.949C365.75 300.266 438.29 320.032 477.631 309.939C516.972 299.846 566.459 257.455 570.019 255.184C573.58 252.913 615.68 233.4 625.203 263.175C634.727 292.949 596.276 341.9 596.276 341.9L304.068 342.236Z" fill="#B0C0F4"/>
<path d="M440.87 0.252441L442.027 57.1936L443.451 56.9413L444.697 0.252441H440.87Z" fill="#FFD063"/>
<path d="M410.342 103.873C410.342 103.873 399.127 56.3525 443.541 55.8478C485.552 55.4273 474.782 106.313 474.782 106.313L410.342 103.873Z" fill="#FFD063"/>
<path d="M409.897 103.873C409.897 103.873 445.588 89.2387 474.782 106.144C474.782 106.144 444.075 121.536 409.897 103.873Z" fill="#EFFDFF"/>
<path d="M427.164 64.3433C427.164 64.3433 411.588 69.8103 414.792 94.7904Z" fill="#EFFDFF"/>
<path d="M409.896 103.873L378.388 210.942L507.269 209.765L474.782 106.144L409.896 103.873Z" fill="url(#paint0_linear)"/>
<path d="M629.387 388.328C629.387 388.328 619.507 422.223 621.109 426.008C622.711 429.793 630.722 430.55 634.282 431.307C637.842 432.064 670.152 440.054 673.445 440.222C676.738 440.39 676.471 440.811 677.895 440.811C679.319 440.811 697.299 435.092 697.922 433.073C698.545 431.054 699.079 429.709 698.545 427.186C698.011 424.662 689.822 392.365 687.597 391.692C685.372 391.019 629.387 388.328 629.387 388.328Z" fill="url(#paint1_linear)"/>
<path d="M627.695 394.383C627.695 394.383 628.407 389.084 629.386 388.327C630.365 387.57 633.124 384.121 635.794 383.953C638.465 383.785 681.455 388.916 683.057 389.252C684.659 389.589 686.795 390.345 687.507 391.607C688.219 392.869 681.277 394.383 679.941 398.42C678.606 402.457 654.041 410.952 647.988 411.541C641.936 412.13 627.695 394.383 627.695 394.383Z" fill="url(#paint2_linear)"/>
<path d="M641.759 385.299C641.759 385.299 646.387 375.794 648.612 374.028C650.571 372.43 657.602 368.982 661.874 374.112C666.681 379.916 666.236 386.644 666.236 387.485C666.236 388.327 661.518 387.57 661.518 387.57C661.518 387.57 663.032 380.673 661.696 378.318C660.45 376.131 659.738 373.523 655.288 373.776C650.838 374.028 649.235 376.383 647.9 378.57C646.743 380.757 645.853 383.028 645.052 385.383C644.874 385.635 641.759 385.299 641.759 385.299Z" fill="#7A5BF5"/>
<path d="M649.146 385.888C649.146 385.888 653.775 374.281 656 372.094C657.958 370.159 665.435 366.29 669.707 372.514C674.513 379.579 673.534 387.486 673.534 388.411C673.534 389.336 668.817 388.579 668.817 388.579C668.817 388.579 670.241 380.168 668.906 377.224C667.66 374.533 666.948 371.337 662.586 371.673C658.225 372.01 656.534 374.785 655.199 377.561C654.042 380.252 653.152 383.028 652.351 385.888C652.351 386.308 649.146 385.888 649.146 385.888Z" fill="#7A5BF5"/>
<path d="M678.073 400.775C678.073 400.775 673.979 433.325 674.513 435.512C675.047 437.698 676.382 440.81 677.361 440.81C678.34 440.81 679.942 440.642 679.319 439.885C677.272 437.11 676.382 433.661 676.916 430.381C677.539 425.082 679.942 398.42 679.942 398.42L678.073 400.775Z" fill="#7A5BF5"/>
<path d="M646.921 413.895C648.297 413.895 649.413 412.84 649.413 411.54C649.413 410.239 648.297 409.185 646.921 409.185C645.545 409.185 644.429 410.239 644.429 411.54C644.429 412.84 645.545 413.895 646.921 413.895Z" fill="#EFFDFF"/>
<path d="M476.297 350.477C473.715 346.44 471.668 345.431 465.349 345.262C459.029 345.094 450.663 345.178 450.663 345.178L450.574 353.673C450.574 353.673 457.516 357.458 461.254 359.392C461.433 359.477 462.056 359.813 462.501 360.065C463.124 360.318 463.836 360.57 464.548 360.738C468.197 361.495 471.579 361.075 473.982 358.888C476.564 356.365 478.878 354.514 476.297 350.477Z" fill="#4B44BE"/>
<path d="M428.677 342.992C428.499 343.16 427.876 343.581 427.52 343.833C426.986 344.254 426.541 344.842 426.096 345.347C424.049 348.291 423.07 351.319 424.494 354.263C426.007 357.459 426.986 360.234 431.793 359.393C436.599 358.636 438.468 357.206 441.049 351.823C443.63 346.441 446.657 338.955 446.568 338.955L438.29 335.759C438.201 335.759 431.882 340.469 428.677 342.992Z" fill="#4B44BE"/>
<path d="M451.285 345.516C451.285 345.516 451.374 354.095 449.95 354.263C448.437 354.431 428.143 351.656 420.044 351.319C411.944 350.899 393.609 345.937 384.619 336.348C376.787 328.022 378.033 318.854 383.818 318.854C389.604 318.854 394.855 314.228 409.452 320.788C424.049 327.349 439.536 328.442 448.259 327.853C456.981 327.18 481.369 322.975 483.238 321.629C485.107 320.284 494.275 316.583 507.003 317.844C519.731 319.106 513.679 328.694 511.008 332.395C507.27 337.526 498.369 342.993 490.893 343.245C483.416 343.497 451.285 345.516 451.285 345.516Z" fill="url(#paint3_linear)"/>
<path d="M436.153 196.057C431.881 197.57 426.452 217.588 426.452 217.588L426.363 217.504L425.74 220.28L425.028 223.896L426.452 245.68L440.337 252.241L472.112 260.315L480.924 272.174C480.924 272.174 500.594 291.099 500.772 292.444C500.861 293.79 479.588 300.435 477.541 300.687C472.646 301.36 508.872 293.033 497.212 279.744C492.316 274.025 485.018 256.951 470.688 245.596C462.41 239.036 464.724 220.448 461.787 208.673C458.138 193.954 455.824 189.496 452.175 189.496C448.881 189.496 444.253 193.197 436.153 196.057Z" fill="url(#paint4_linear)"/>
<path d="M481.19 243.661C474.515 237.858 472.29 236.512 466.415 238.446C460.541 240.381 457.693 242.231 449.771 243.409C444.876 244.25 439.803 243.577 435.263 241.726L418.886 243.24C416.839 242.988 393.519 284.369 392.896 292.948C392.54 298.247 405.268 306.406 408.739 307.163C410.163 307.499 412.745 294.462 413.546 293.285L408.205 291.771C409.184 289.5 412.389 283.949 414.525 281.005C415.148 280.08 420.221 272.174 420.933 269.146C421.022 269.398 421.823 275.117 422.535 276.968C423.87 280.332 425.65 282.267 425.65 284.958C425.65 287.65 425.294 298.415 423.247 303.21C421.2 308.004 418.174 319.19 418.174 319.19L470.599 318.938C470.599 318.938 468.73 297.658 469.442 290.341C469.442 290.341 468.641 287.397 470.154 283.108C472.735 276.043 473.447 265.613 473.002 263.931C472.379 261.324 488.4 283.192 491.96 288.659C493.473 290.93 473.447 294.967 471.845 296.733C470.154 298.584 473.536 303.546 473.536 303.546C473.536 303.546 508.337 299.509 508.159 294.546C507.981 289.584 488.934 250.306 481.19 243.661Z" fill="url(#paint5_linear)"/>
<path d="M440.337 184.281C440.337 184.281 430.635 184.617 427.787 194.29C424.939 203.962 424.583 217.419 424.494 219.522C424.405 221.709 425.473 234.661 420.222 240.044C415.682 244.67 417.551 249.212 416.394 252.913L415.86 259.053C415.949 259.81 416.483 260.398 417.284 260.651C417.997 260.819 420.4 259.81 420.845 259.641C426.897 257.371 426.897 255.52 429.211 253.67C431.08 252.156 436.332 248.623 437.934 247.278C439.536 245.848 440.604 244.67 440.693 242.904C440.96 233.989 439.358 225.662 437.311 221.288C435.264 216.915 431.258 209.513 434.552 204.635C437.845 199.757 443.897 194.794 444.253 193.617C444.609 192.439 444.787 198.327 448.437 200.43C452.086 202.532 455.201 205.392 456.358 208.252C457.337 210.607 458.583 214.644 455.112 221.709C451.641 228.69 448.793 237.689 453.688 244.334C458.583 250.978 468.908 258.212 470.599 261.576C472.468 265.277 470.688 274.024 470.332 279.323C469.976 284.621 481.28 270.155 480.924 263.258C480.568 256.361 481.814 253.417 474.783 242.904C467.751 232.391 463.301 214.307 463.123 209.934C462.945 205.56 460.898 193.449 456.714 189.916C453.065 186.972 452.264 184.113 444.876 184.113C443.274 184.028 441.85 184.113 440.337 184.281Z" fill="url(#paint6_linear)"/>
<path opacity="0.07" d="M418.175 330.545L467.307 330.797C467.307 330.797 461.521 335.087 458.762 335.507C456.003 335.928 444.165 341.563 439.715 339.46C436.689 337.862 418.175 330.545 418.175 330.545Z" fill="black"/>
<path opacity="0.07" d="M445.588 226.167C445.588 226.167 450.216 227.261 452.085 224.738C456.357 219.018 452.441 227.681 452.441 227.681C452.441 227.681 451.195 231.046 451.284 232.728C451.373 234.41 446.389 226.42 445.588 226.167Z" fill="black"/>
<path opacity="0.07" d="M427.254 255.604C426.719 256.277 425.829 256.782 425.473 258.464C424.761 261.156 423.96 264.184 422.002 266.959C420.845 268.557 421.468 274.949 423.426 278.902C423.96 280.08 425.74 283.024 425.651 283.697L425.562 289.5H430.814C430.814 289.5 435.353 289.921 434.374 286.472C433.573 283.36 429.301 271.753 432.149 269.23C437.578 264.52 430.725 255.1 433.306 252.072C435.531 249.465 438.646 247.614 438.646 246.689C438.646 246.353 437.845 247.446 437.222 247.782C436.154 248.539 435.62 249.128 434.641 249.633C433.662 250.222 432.149 251.231 431.17 251.988C429.657 253.165 428.411 254.343 427.254 255.604Z" fill="black"/>
<path d="M406.693 292.865C406.693 292.865 406.693 289.837 409.808 289.753C412.924 289.669 479.856 289.753 479.856 289.753C479.856 289.753 482.794 290.089 482.883 292.36C482.972 294.631 482.972 328.022 482.972 328.022C482.972 328.022 482.972 330.629 480.123 330.713C477.275 330.798 409.007 330.798 409.007 330.798C409.007 330.798 406.426 330.209 406.515 327.77C406.515 325.246 406.693 292.865 406.693 292.865Z" fill="#EFFDFF"/>
<path d="M444.966 312.967C446.588 312.967 447.903 311.724 447.903 310.191C447.903 308.658 446.588 307.416 444.966 307.416C443.344 307.416 442.029 308.658 442.029 310.191C442.029 311.724 443.344 312.967 444.966 312.967Z" fill="#76C6E7"/>
</g>
<defs>
<linearGradient id="paint0_linear" x1="442.611" y1="46.1582" x2="442.85" y2="232.676" gradientUnits="userSpaceOnUse">
<stop stop-color="white"/>
<stop offset="1" stop-color="white" stop-opacity="0"/>
</linearGradient>
<linearGradient id="paint1_linear" x1="606.669" y1="388.714" x2="680.869" y2="425.083" gradientUnits="userSpaceOnUse">
<stop stop-color="#E5A4ED"/>
<stop offset="1" stop-color="#7A5BF5"/>
</linearGradient>
<linearGradient id="paint2_linear" x1="618.389" y1="379.926" x2="667.705" y2="404.101" gradientUnits="userSpaceOnUse">
<stop stop-color="#E5A4ED"/>
<stop offset="1" stop-color="#7A5BF5"/>
</linearGradient>
<linearGradient id="paint3_linear" x1="514.805" y1="335.784" x2="379.095" y2="335.784" gradientUnits="userSpaceOnUse">
<stop stop-color="#4B45BD"/>
<stop offset="1" stop-color="#58CAEA"/>
</linearGradient>
<linearGradient id="paint4_linear" x1="425.013" y1="245.072" x2="500.715" y2="245.072" gradientUnits="userSpaceOnUse">
<stop stop-color="#F87B58"/>
<stop offset="0.5" stop-color="#F8C548"/>
<stop offset="1" stop-color="#F89C51"/>
</linearGradient>
<linearGradient id="paint5_linear" x1="392.89" y1="278.437" x2="508.073" y2="278.437" gradientUnits="userSpaceOnUse">
<stop stop-color="#E5A4ED"/>
<stop offset="1" stop-color="#7A5BF5"/>
</linearGradient>
<linearGradient id="paint6_linear" x1="415.967" y1="232.204" x2="480.856" y2="232.204" gradientUnits="userSpaceOnUse">
<stop stop-color="#4B45BD"/>
<stop offset="1" stop-color="#58CAEA"/>
</linearGradient>
<clipPath id="clip0">
<rect width="862" height="520" fill="white" transform="translate(-0.00012207)"/>
</clipPath>
</defs>
</svg>
