<svg width="825" height="759" viewBox="0 0 825 759" fill="none" xmlns="http://www.w3.org/2000/svg">
<g clip-path="url(#clip0)">
<g filter="url(#filter0_f)">
<path d="M122.634 196.934C117.343 206.099 112.442 215.484 107.945 225.064L478.885 10.7837C407.977 4.7795 336.817 19.0977 273.728 52.0632C210.639 85.0287 158.231 135.278 122.634 196.934ZM101.265 240.141C100.031 243.102 98.8348 246.079 97.677 249.071L504.8 13.8885C501.631 13.3965 498.456 12.9452 495.276 12.5347L101.265 240.141ZM92.5049 263.277C91.6372 265.82 90.7967 268.371 89.9838 270.932L527.568 18.1524C524.945 17.577 522.317 17.03 519.683 16.5111L92.5049 263.277ZM85.6352 285.659C63.818 365.55 69.061 450.407 100.546 526.978C132.03 603.549 187.983 667.523 259.668 708.91C285.696 723.936 313.438 735.775 342.296 744.169L811.023 473.4C830.35 394.594 823.594 311.654 791.77 237.04C759.946 162.427 704.772 100.169 634.537 59.6186C605.676 42.9559 574.721 30.2203 542.489 21.7489L85.6352 285.659ZM356.717 748.057C359.065 748.639 361.419 749.199 363.779 749.736L802.481 496.311L803.867 498.714C805.025 495.106 806.128 491.481 807.176 487.839L356.717 748.057ZM378.07 752.699C381.3 753.303 384.538 753.864 387.782 754.383L794.076 519.68L795.485 522.122C797.248 517.669 798.926 513.182 800.516 508.665L378.07 752.699ZM403.45 756.55C476.145 765.045 549.746 752.055 615.165 719.187C680.584 686.318 734.956 635.01 771.568 571.596C778.85 558.983 785.39 545.956 791.157 532.583L403.45 756.55Z" fill="#C2F5FF"/>
</g>
<path d="M173.837 170.073C201.655 170.073 224.205 147.534 224.205 119.732C224.205 91.9302 201.655 69.3921 173.837 69.3921C146.02 69.3921 123.469 91.9302 123.469 119.732C123.469 147.534 146.02 170.073 173.837 170.073Z" fill="#8663F5"/>
<path d="M280.107 363.807C292.675 363.807 302.863 353.625 302.863 341.064C302.863 328.503 292.675 318.32 280.107 318.32C267.539 318.32 257.351 328.503 257.351 341.064C257.351 353.625 267.539 363.807 280.107 363.807Z" fill="#8663F5"/>
<path d="M22.7558 404.853C35.3236 404.853 45.5117 394.671 45.5117 382.11C45.5117 369.549 35.3236 359.367 22.7558 359.367C10.1881 359.367 0 369.549 0 382.11C0 394.671 10.1881 404.853 22.7558 404.853Z" fill="#F28DFD"/>
<path d="M447.073 139.179L439.036 125.59L431 112H447.073H463.145L455.109 125.59L447.073 139.179Z" stroke="#F28DFD" stroke-width="5" stroke-linejoin="bevel"/>
<path d="M31.5626 183.503L50.2383 161.727L70.046 185.765L89.8537 162.009L110.227 186.614L128.903 164.837" stroke="#27B9E6" stroke-width="5" stroke-linecap="round" stroke-linejoin="bevel"/>
<path d="M822.831 642.153C822.482 642.756 809.5 641.851 808.897 642.198C808.293 642.546 802.571 654.228 801.875 654.227C801.178 654.227 795.471 642.538 794.868 642.189C794.265 641.841 781.282 642.729 780.934 642.126C780.586 641.522 787.861 630.738 787.861 630.042C787.862 629.346 780.601 618.552 780.949 617.95C781.298 617.347 794.28 618.252 794.884 617.904C795.487 617.556 801.209 605.875 801.906 605.875C802.603 605.876 808.309 617.564 808.912 617.913C809.516 618.261 822.499 617.373 822.847 617.977C823.195 618.58 815.92 629.364 815.919 630.06C815.919 630.757 823.18 641.55 822.831 642.153Z" fill="#F28DFD" stroke="#F28DFD" stroke-width="1.1" stroke-linecap="round"/>
<path d="M631.106 132.87C628.874 132.833 626.174 123.905 624.622 122.3C623.07 120.696 614.232 117.701 614.27 115.47C614.307 113.238 623.24 110.54 624.845 108.989C626.45 107.438 629.447 98.6052 631.68 98.6426C633.912 98.68 636.612 107.608 638.164 109.212C639.716 110.816 648.554 113.812 648.516 116.043C648.479 118.274 639.546 120.972 637.941 122.523C636.336 124.075 633.339 132.907 631.106 132.87Z" fill="#FED21C"/>
<path d="M631.444 85.3982C634.227 85.3982 636.483 83.1437 636.483 80.3627C636.483 77.5816 634.227 75.3271 631.444 75.3271C628.662 75.3271 626.406 77.5816 626.406 80.3627C626.406 83.1437 628.662 85.3982 631.444 85.3982Z" fill="#FED21C"/>
<path d="M631.654 67.5642C634.437 67.5642 636.692 65.3097 636.692 62.5287C636.692 59.7477 634.437 57.4932 631.654 57.4932C628.871 57.4932 626.616 59.7477 626.616 62.5287C626.616 65.3097 628.871 67.5642 631.654 67.5642Z" fill="#FED21C"/>
<path d="M631.865 49.0999C634.647 49.0999 636.903 46.8454 636.903 44.0643C636.903 41.2833 634.647 39.0288 631.865 39.0288C629.082 39.0288 626.826 41.2833 626.826 44.0643C626.826 46.8454 629.082 49.0999 631.865 49.0999Z" fill="#FED21C"/>
<path d="M749.255 132.199C747.93 132.177 746.328 126.878 745.407 125.926C744.485 124.974 739.241 123.196 739.263 121.872C739.285 120.548 744.586 118.947 745.539 118.026C746.492 117.105 748.27 111.863 749.595 111.886C750.92 111.908 752.522 117.206 753.443 118.158C754.365 119.111 759.609 120.888 759.587 122.212C759.565 123.537 754.264 125.138 753.311 126.058C752.358 126.979 750.58 132.221 749.255 132.199Z" fill="#00A8C4"/>
<path d="M150.17 338.412C147.443 338.366 144.146 327.461 142.25 325.502C140.354 323.542 129.559 319.884 129.605 317.158C129.651 314.433 140.562 311.137 142.522 309.243C144.483 307.348 148.144 296.559 150.871 296.605C153.598 296.65 156.895 307.556 158.79 309.515C160.686 311.475 171.481 315.133 171.435 317.859C171.389 320.584 160.478 323.879 158.518 325.774C156.557 327.669 152.897 338.458 150.17 338.412Z" fill="#00A8C4"/>
<path d="M668.021 33.0528C666.592 33.0289 664.864 27.3131 663.87 26.286C662.876 25.2589 657.219 23.3412 657.243 21.9127C657.266 20.4842 662.985 18.757 664.013 17.7638C665.041 16.7706 666.959 11.1158 668.389 11.1398C669.818 11.1637 671.546 16.8795 672.54 17.9066C673.534 18.9337 679.192 20.8513 679.168 22.2799C679.144 23.7084 673.425 25.4356 672.397 26.4288C671.369 27.422 669.451 33.0768 668.021 33.0528Z" fill="#FF97FF"/>
<path d="M626.551 358.565C630.419 358.565 633.555 355.431 633.555 351.566C633.555 347.7 630.419 344.566 626.551 344.566C622.684 344.566 619.548 347.7 619.548 351.566C619.548 355.431 622.684 358.565 626.551 358.565Z" fill="#FF97FF"/>
<path d="M646.16 358.565C650.028 358.565 653.163 355.431 653.163 351.566C653.163 347.7 650.028 344.566 646.16 344.566C642.292 344.566 639.157 347.7 639.157 351.566C639.157 355.431 642.292 358.565 646.16 358.565Z" fill="#FF97FF"/>
<path d="M666.569 358.565C670.437 358.565 673.572 355.431 673.572 351.566C673.572 347.7 670.437 344.566 666.569 344.566C662.701 344.566 659.566 347.7 659.566 351.566C659.566 355.431 662.701 358.565 666.569 358.565Z" fill="#FF97FF"/>
<path d="M536.952 703.782C536.952 703.782 572.167 665.386 604.181 666.186C636.195 666.986 673.811 686.984 673.811 686.984C673.811 686.984 727.435 654.987 770.654 706.182L536.952 703.782Z" fill="#26B6E3"/>
<path d="M171.025 729.13C168.059 729.08 164.473 717.219 162.411 715.088C160.349 712.957 148.608 708.977 148.658 706.013C148.708 703.048 160.575 699.464 162.708 697.403C164.84 695.342 168.822 683.608 171.788 683.658C174.754 683.707 178.34 695.569 180.402 697.7C182.464 699.831 194.205 703.81 194.155 706.775C194.105 709.739 182.238 713.323 180.105 715.384C177.973 717.445 173.991 729.18 171.025 729.13Z" fill="#00A8C4"/>
</g>
<path d="M438.223 597H145.777C144.243 597 143 597.89 143 598.986V599.014C143 600.111 144.243 601 145.777 601H438.223C439.756 601 441 600.111 441 599.014V598.986C441 597.89 439.756 597 438.223 597Z" fill="#999999"/>
<path d="M751.164 597H557.836C556.822 597 556 597.89 556 598.986V599.014C556 600.111 556.822 601 557.836 601H751.164C752.178 601 753 600.111 753 599.014V598.986C753 597.89 752.178 597 751.164 597Z" fill="#999999"/>
<g opacity="0.997">
<path opacity="0.997" d="M180.527 515.333L167.027 594.707H169.339L170.997 586.483L185.316 515.429L180.527 515.333Z" fill="#666666"/>
<path opacity="0.997" d="M167.326 594.61C166.758 594.54 166.99 596.375 166.99 596.375L169.471 596.523C169.471 596.523 169.665 594.988 169.205 594.67C168.95 594.493 168.128 594.708 167.326 594.61Z" fill="black"/>
</g>
<g opacity="0.997">
<path opacity="0.997" d="M192.105 515.132L179.684 592.566H181.177C181.177 592.566 182.204 590.338 183.412 583.753C188.567 555.64 196.599 515.225 196.599 515.225L192.105 515.132Z" fill="#666666"/>
<path opacity="0.997" d="M179.57 592.413L179.287 594.102L181.616 594.178L181.333 592.421L179.57 592.413Z" fill="#0B0B0B"/>
</g>
<g opacity="0.997">
<path opacity="0.997" d="M223.63 515.689L236.287 593.043L235.108 592.964C231.146 568.839 224.133 539.814 220.171 515.689H223.63Z" fill="#666666"/>
<path opacity="0.997" d="M236.397 592.841L236.8 594.197L235.001 594.205L235.029 592.808C235.029 592.808 235.82 592.882 236.397 592.841C236.397 592.841 236.974 592.801 236.397 592.841Z" fill="black"/>
</g>
<g opacity="0.997">
<path opacity="0.997" d="M232.121 515.53L249.573 593.123H248.158C244.196 568.998 232.518 539.742 228.558 515.618L232.121 515.53Z" fill="#666666"/>
<path opacity="0.997" d="M249.544 592.964C249.952 592.953 249.888 594.336 249.888 594.336L248.091 594.266C248.091 594.266 247.861 593.08 248.177 592.87C248.353 592.754 248.965 592.98 249.544 592.964Z" fill="black"/>
</g>
<path opacity="0.997" d="M180.457 515.737C165.795 515.944 155.519 441.474 169.949 439.515C172.897 438.827 171.9 464.639 175.04 475.539C178.18 486.437 180.322 501.756 187.962 504.481C203.259 509.94 231.113 504.674 234.503 507.865C237.894 511.056 237.83 515.974 232.734 516.11C227.639 516.245 190.624 515.592 180.457 515.737Z" fill="#54B5FF" fill-opacity="0.996078"/>
<path d="M218.409 566.189C218.409 566.189 218.61 578.875 216.193 582.61C215.948 583.047 228.555 588.331 229.522 581.07C229.522 581.07 227.591 578.563 230.857 568.666C231.127 567.845 222.239 569.056 218.409 566.189Z" fill="#B75858"/>
<path d="M256.374 568.722C256.374 568.722 265.326 569.942 270.732 566.559C270.732 566.559 271.855 579.885 273.224 580.509C272.891 582.676 271.47 587.051 259.896 582.05C259.143 582.341 256.374 568.722 256.374 568.722Z" fill="#B75858"/>
<path d="M257.617 589.217C257.561 589.768 257.08 595.538 261.283 596.236C261.283 596.236 296.808 598.259 296.083 593.434" fill="#0B0D2B" fill-opacity="0.996078"/>
<path d="M273.224 580.509C272.086 587.443 259.896 582.05 259.896 582.05C259.896 582.05 257.048 582.945 257.618 589.217C262.78 591.312 265.364 587.443 266.276 594.597L294.187 594.266C294.187 594.266 305.919 593.386 273.224 580.509Z" fill="#FE0057"/>
<path d="M276.389 586.542C276.371 587.224 277.86 587.226 278.389 585.58C278.619 584.864 276.433 584.998 276.389 586.542Z" fill="#FF8080" fill-opacity="0.996078"/>
<path d="M277.946 584.77C277.927 585.455 279.416 585.455 279.944 583.809C280.176 583.094 277.99 583.228 277.946 584.77Z" fill="#FF8080" fill-opacity="0.996078"/>
<path d="M277.894 587.301C277.875 587.984 279.363 587.984 279.893 586.34C280.122 585.623 277.937 585.757 277.894 587.301Z" fill="#FD6F24" fill-opacity="0.960784"/>
<path d="M279.451 585.529C279.432 586.214 280.919 586.214 281.449 584.568C281.679 583.853 279.493 583.987 279.451 585.529Z" fill="#FD6F24" fill-opacity="0.960784"/>
<path d="M257.617 589.217C257.561 589.768 257.08 595.538 261.283 596.236C261.283 596.236 296.808 598.259 296.083 593.434" fill="#0B0D2B" fill-opacity="0.996078"/>
<path d="M273.224 580.509C272.086 587.443 259.896 582.05 259.896 582.05C259.896 582.05 257.048 582.945 257.618 589.217C262.78 591.312 265.364 587.443 266.276 594.597L294.187 594.266C294.187 594.266 305.919 593.386 273.224 580.509Z" fill="#FE0057"/>
<path d="M276.389 586.542C276.371 587.224 277.86 587.226 278.389 585.58C278.619 584.864 276.433 584.998 276.389 586.542Z" fill="#FF8080" fill-opacity="0.996078"/>
<path d="M277.946 584.77C277.927 585.455 279.416 585.455 279.944 583.809C280.176 583.094 277.99 583.228 277.946 584.77Z" fill="#FF8080" fill-opacity="0.996078"/>
<path d="M277.894 587.301C277.875 587.984 279.363 587.984 279.893 586.34C280.122 585.623 277.937 585.757 277.894 587.301Z" fill="#FD6F24" fill-opacity="0.960784"/>
<path d="M279.451 585.529C279.432 586.214 280.919 586.214 281.449 584.568C281.679 583.853 279.493 583.987 279.451 585.529Z" fill="#FD6F24" fill-opacity="0.960784"/>
<path d="M213.915 589.777C213.858 590.328 213.377 596.098 217.58 596.795C217.58 596.795 253.103 598.82 252.379 593.994" fill="#0B0D2B" fill-opacity="0.996078"/>
<path d="M229.522 581.069C228.383 588.003 216.193 582.61 216.193 582.61C216.193 582.61 213.346 583.505 213.915 589.777C219.077 591.872 221.662 588.003 222.572 595.157L250.482 594.826C250.482 594.826 262.217 593.946 229.522 581.069Z" fill="#FE0057"/>
<path d="M232.687 587.102C232.668 587.786 234.157 587.786 234.685 586.141C234.916 585.426 232.731 585.56 232.687 587.102Z" fill="#FF8080" fill-opacity="0.996078"/>
<path d="M234.243 585.331C234.224 586.015 235.713 586.015 236.242 584.369C236.473 583.655 234.287 583.788 234.243 585.331Z" fill="#FF8080" fill-opacity="0.996078"/>
<path d="M234.191 587.861C234.173 588.546 235.66 588.546 236.19 586.9C236.419 586.183 234.234 586.319 234.191 587.861Z" fill="#FD6F24" fill-opacity="0.960784"/>
<path d="M235.748 586.09C235.728 586.774 237.217 586.774 237.746 585.128C237.976 584.414 235.79 584.548 235.748 586.09Z" fill="#FD6F24" fill-opacity="0.960784"/>
<path d="M213.915 589.777C213.858 590.328 213.377 596.098 217.58 596.795C217.58 596.795 253.103 598.82 252.379 593.994" fill="#0B0D2B" fill-opacity="0.996078"/>
<path d="M229.522 581.069C228.383 588.003 216.193 582.61 216.193 582.61C216.193 582.61 213.346 583.505 213.915 589.777C219.077 591.872 221.662 588.003 222.572 595.157L250.482 594.826C250.482 594.826 262.217 593.946 229.522 581.069Z" fill="#FE0057"/>
<path d="M232.687 587.102C232.668 587.786 234.157 587.786 234.685 586.141C234.916 585.426 232.731 585.56 232.687 587.102Z" fill="#FF8080" fill-opacity="0.996078"/>
<path d="M234.243 585.331C234.224 586.015 235.713 586.015 236.242 584.369C236.473 583.655 234.287 583.788 234.243 585.331Z" fill="#FF8080" fill-opacity="0.996078"/>
<path d="M234.191 587.861C234.173 588.546 235.66 588.546 236.19 586.9C236.419 586.183 234.234 586.319 234.191 587.861Z" fill="#FD6F24" fill-opacity="0.960784"/>
<path d="M235.748 586.09C235.728 586.774 237.217 586.774 237.746 585.128C237.976 584.414 235.79 584.548 235.748 586.09Z" fill="#FD6F24" fill-opacity="0.960784"/>
<path d="M249.662 479.984C249.662 479.984 268.995 487.611 259.328 508.468C259.328 508.468 241.284 534.149 231.295 568.548C231.295 568.548 216.313 571.039 217.924 562.789C217.924 562.789 224.529 533.371 227.267 520.141C227.267 520.141 228.556 513.448 229.201 509.09C229.201 509.09 223.701 511.463 217.383 510.661C208.184 509.491 200.24 512.052 198.72 510.15C198.72 510.15 227.589 506.289 231.135 502.397L249.662 479.984Z" fill="#090E2B"/>
<path d="M175.843 476.027C175.843 476.027 145.845 533.643 228.976 504.071C228.976 504.071 240.64 550.209 255.772 568.136C258.945 571.897 270.808 567.2 270.808 567.2C270.808 567.2 255.573 482.453 250.416 480.253C229.301 471.246 175.843 469.822 175.843 476.027Z" fill="#0D1D68"/>
<path opacity="0.996774" d="M203.467 416.197C205.688 419.311 208.367 423.134 212.706 423.255C216.419 422.757 218.501 419.194 219.476 416.032C220.913 413.054 225.679 411.669 225.061 407.832C224.421 405.105 220.055 404.18 220.858 401.013C222.028 398.554 222.111 395.716 222.5 393.048C222.712 390.378 222.702 387.572 221.389 385.152C221.139 382.889 219.215 382.416 217.349 382.636C219.408 379.658 215.577 375.886 212.665 374.757C209.449 372.83 205.789 376.553 202.595 374.547C198.882 372.995 195.242 375.15 191.783 376.002C188.757 377.124 189.144 381.503 185.63 381.507C183.045 383.448 184.487 386.898 183.102 389.399C182.345 391.912 181.998 394.521 181.228 397.031C178.239 399.025 177.842 402.855 176.963 405.548C174.429 406.001 171.528 406.57 171.475 409.616C169.305 411.674 166.43 414.291 168.611 417.375C168.712 419.516 170.651 420.55 172.242 420.778C173.685 423.452 175.865 427.557 179.688 426.225C182.97 425.37 185.995 423.07 189.553 423.614C192.61 423.056 194.776 418.935 198.191 420.535C200.712 421.09 203.017 418.429 203.467 416.197Z" fill="#201717"/>
<path d="M191.858 417.539C191.858 417.539 194.129 416.851 194.698 415.947C197.083 412.164 196.294 407.01 195.364 402.671C195.089 401.382 194.479 400.101 193.564 399.127C191.986 397.447 188.184 400.008 187.569 395.553C187.358 394.021 189.737 389.192 195.284 393.422C197.624 395.208 197.545 386.33 202.166 386.925C207.891 387.664 208.94 384.652 210.105 386.914C211.333 389.295 213.875 387.955 215.556 388.147C215.13 389.637 214.814 394.722 216.053 397.223C216.857 398.845 213.125 408.059 211.816 408.882C207.775 411.417 202.02 408.078 202.02 408.078C199.805 407.425 202.575 412.735 203.574 414.621C204.001 415.428 205.254 417.193 206.099 417.325C206.099 417.325 205.633 420.453 203.699 422.065C202.311 423.221 192.173 421.628 191.858 417.539Z" fill="#B75858"/>
<path d="M201.853 408.492C201.922 408.349 201.922 408.349 201.922 408.349C201.922 408.349 201.922 408.349 201.921 408.349C201.919 408.347 201.918 408.346 201.915 408.346C201.908 408.343 201.9 408.338 201.889 408.333C201.866 408.32 201.833 408.303 201.79 408.279C201.704 408.233 201.58 408.163 201.427 408.069C201.121 407.881 200.702 407.599 200.256 407.23C199.361 406.488 198.366 405.398 197.915 403.986L197.616 404.085C198.092 405.578 199.139 406.716 200.058 407.477C200.517 407.857 200.948 408.147 201.264 408.341C201.421 408.438 201.551 408.511 201.641 408.561C201.687 408.585 201.721 408.604 201.746 408.616C201.759 408.623 201.768 408.628 201.775 408.631C201.778 408.632 201.779 408.632 201.781 408.634C201.783 408.634 201.783 408.636 201.784 408.636C201.784 408.636 201.784 408.636 201.853 408.492Z" fill="black"/>
<path d="M191.858 417.539C191.858 417.539 178.871 417.649 175.453 421.942C175.453 421.942 171.61 428.162 168.509 435.899C166.835 440.075 163.906 443.273 163.387 447.594C163.387 447.594 172.343 448.369 176.951 449.46C178.28 449.773 178.816 445.202 179.586 444.974C179.868 444.892 180.028 445.477 180.011 447.217L175.91 474.939C175.91 474.939 173.154 479.505 171.822 486.324C172.49 489.924 190.511 483.613 205.973 475.968C205.973 475.968 210.723 473.85 213.3 474.939C213.3 474.939 220.952 478.44 216.199 471.047C216.199 471.047 212.924 468.422 212.924 459.239C212.924 459.239 214.75 447.545 215.797 445.132C215.797 445.132 217.239 444.1 218.231 445.824L218.391 447.936C218.391 447.936 228.419 445.834 231.602 444.589C231.602 444.589 223.756 417.759 213.616 418.309C213.616 418.309 207.669 417.934 206.099 416.689C204.085 415.093 205.295 427.224 191.858 417.539Z" fill="#4424F6"/>
<path d="M216.633 444.861C217.097 444.952 217.097 444.952 217.097 444.95V444.948C217.097 444.947 217.097 444.945 217.099 444.942C217.099 444.936 217.102 444.926 217.103 444.915C217.108 444.893 217.114 444.858 217.122 444.815C217.138 444.726 217.16 444.597 217.188 444.433C217.243 444.103 217.319 443.632 217.401 443.058C217.563 441.908 217.747 440.347 217.835 438.7C217.921 437.056 217.915 435.306 217.685 433.789C217.46 432.298 217.006 430.918 216.103 430.138L215.49 430.864C216.119 431.407 216.534 432.484 216.753 433.933C216.968 435.357 216.978 437.033 216.893 438.647C216.806 440.259 216.625 441.791 216.467 442.922C216.386 443.487 216.313 443.951 216.258 444.272C216.231 444.433 216.209 444.559 216.193 444.643C216.185 444.686 216.18 444.718 216.176 444.74C216.174 444.75 216.173 444.757 216.171 444.764C216.171 444.765 216.171 444.769 216.171 444.769C216.171 444.77 216.169 444.77 216.169 444.77C216.169 444.77 216.169 444.77 216.633 444.861Z" fill="black" fill-opacity="0.2"/>
<path d="M179.684 445.1C180.1 445.325 180.1 445.325 180.1 445.325C180.1 445.323 180.1 445.323 180.1 445.323C180.102 445.321 180.102 445.32 180.103 445.318C180.106 445.313 180.108 445.307 180.113 445.301C180.121 445.285 180.132 445.263 180.146 445.234C180.174 445.178 180.215 445.095 180.265 444.987C180.366 444.774 180.506 444.462 180.668 444.066C180.989 443.275 181.393 442.148 181.724 440.793C182.388 438.089 182.773 434.45 181.613 430.788L180.715 431.081C181.803 434.513 181.448 437.955 180.809 440.562C180.49 441.863 180.102 442.945 179.795 443.703C179.641 444.082 179.507 444.378 179.413 444.577C179.366 444.677 179.33 444.753 179.305 444.804C179.292 444.828 179.283 444.847 179.276 444.86C179.273 444.865 179.27 444.869 179.268 444.873C179.268 444.874 179.268 444.874 179.267 444.876C179.267 444.876 179.267 444.876 179.684 445.1Z" fill="black" fill-opacity="0.2"/>
<path d="M207.106 430.039C202.998 430.117 203.391 436.661 203.391 436.661C203.391 436.661 207.982 444.839 206.372 447.096C206.825 443.453 205.001 440.069 203.391 436.661C200.007 434.949 201.297 442.418 201.297 442.418C199.654 447.504 192.632 448.901 182.388 452.139C170.447 455.911 180.121 449.543 175.059 448.272C170.673 447.173 165.309 447.773 165.309 447.773C165.309 447.773 161.824 464.132 165.691 464.754C165.691 464.754 188.326 467.167 205.323 447.867C205.323 447.867 206.534 445.665 208.471 448.691C208.471 448.691 221.281 464.354 228.443 461.098C233.529 458.784 230.454 444.919 230.454 444.919C230.454 444.919 223.962 445.688 219.878 447.54C219.243 447.828 222.292 448.559 220.507 449.48C219.635 449.931 213.748 448.171 210.52 445.22C212.694 430.979 207.106 430.039 207.106 430.039Z" fill="#B75858"/>
<path d="M176.325 453.274C176.325 453.274 172.389 454.498 169.52 452.242L176.325 453.274Z" fill="#A44040"/>
<path d="M220.724 449.589C220.724 449.589 223.988 451.091 226.367 448.323L220.724 449.589Z" fill="#A44040"/>
<path d="M206.459 393.239C205.611 393.29 202.878 391.358 201.786 391.375C200.765 391.393 198.098 392.17 197.696 391.417C197.242 390.567 199.01 389.706 200.106 389.429C202.837 389.244 203.864 389.424 206.271 390.998C207.001 391.476 207.391 393.184 206.459 393.239Z" fill="#3F2E2E" stroke="black" stroke-width="0.2"/>
<path d="M191.272 395.532C191.451 395.471 191.605 395.339 191.687 395.172C191.77 395.006 191.779 394.807 191.715 394.634C191.65 394.46 191.512 394.314 191.339 394.236C191.166 394.16 190.962 394.152 190.783 394.215C190.632 394.269 190.503 394.371 190.413 394.5C190.323 394.627 190.273 394.78 190.262 394.935C190.24 395.242 190.377 395.549 190.588 395.781C190.822 396.041 191.154 396.222 191.509 396.254C191.687 396.27 191.869 396.249 192.036 396.19C192.204 396.132 192.356 396.034 192.476 395.907C192.632 395.742 192.728 395.528 192.757 395.307C192.787 395.087 192.753 394.86 192.668 394.653C192.5 394.239 192.136 393.918 191.727 393.714C191.451 393.577 191.147 393.488 190.836 393.47C190.526 393.453 190.21 393.51 189.935 393.652C189.641 393.803 189.4 394.048 189.253 394.336C189.105 394.624 189.048 394.955 189.083 395.275C189.117 395.595 189.24 395.906 189.43 396.17C189.621 396.434 189.875 396.654 190.163 396.814C190.556 397.034 191.012 397.142 191.465 397.126C191.916 397.109 192.363 396.967 192.737 396.72" stroke="black" stroke-width="0.395"/>
<path d="M208.199 393.551C209.578 396.004 210.19 397.341 209.96 398.353C209.737 399.343 207.361 398.821 207.361 398.821" fill="#AA4949"/>
<path d="M208.199 393.551C209.578 396.004 210.19 397.341 209.96 398.353C209.737 399.343 207.361 398.821 207.361 398.821" stroke="#782121" stroke-width="0.538"/>
<path d="M209.613 393.048C210.312 393.112 212.616 391.557 213.52 391.597C214.361 391.635 216.545 392.35 216.897 391.727C217.294 391.025 215.853 390.263 214.955 390.005C212.704 389.785 211.85 389.911 209.822 391.175C209.209 391.557 208.842 392.98 209.613 393.048Z" fill="#3F2E2E" stroke="black" stroke-width="0.2"/>
<path d="M197.943 392.071C197.948 392.46 196.86 397.962 202.037 397.956C203.441 397.954 204.478 397.357 205.221 396.537C206.743 394.86 207.034 392.254 206.729 391.947C206.452 391.67 197.94 391.868 197.943 392.071Z" stroke="black" stroke-width="0.890696"/>
<path d="M210.32 391.749C209.74 391.711 209.216 397.992 214.07 397.47C216.957 397.161 217.289 391.769 216.595 391.663C215.882 391.555 211.765 391.842 210.32 391.749Z" stroke="black" stroke-width="0.910085"/>
<path d="M210.092 391.79H206.694C206.66 391.79 206.632 391.813 206.632 391.844C206.632 391.874 206.66 391.898 206.694 391.898H210.092C210.127 391.898 210.155 391.874 210.155 391.844C210.155 391.813 210.127 391.79 210.092 391.79Z" fill="black" stroke="black" stroke-width="0.622324"/>
<path d="M197.831 392.117H189.355C189.294 392.117 189.245 392.159 189.245 392.211C189.245 392.264 189.294 392.305 189.355 392.305H197.831C197.893 392.305 197.943 392.264 197.943 392.211C197.943 392.159 197.893 392.117 197.831 392.117Z" fill="black" stroke="black" stroke-width="0.921954"/>
<path d="M217.688 392.071L216.79 391.524C216.724 391.484 216.625 391.49 216.567 391.538C216.509 391.586 216.515 391.657 216.581 391.697L217.479 392.245C217.543 392.285 217.644 392.278 217.702 392.23C217.759 392.183 217.753 392.111 217.688 392.071Z" fill="black" stroke="black" stroke-width="1.70706"/>
<path d="M200.951 394.215C201.018 394.675 201.24 395.111 201.573 395.445C201.908 395.778 202.353 396.005 202.826 396.087C203.426 396.187 204.065 396.047 204.559 395.703C205.054 395.359 205.397 394.82 205.488 394.237" fill="#A44040"/>
<path d="M200.951 394.215C201.018 394.675 201.24 395.111 201.573 395.445C201.908 395.778 202.353 396.005 202.826 396.087C203.426 396.187 204.065 396.047 204.559 395.703C205.054 395.359 205.397 394.82 205.488 394.237" stroke="black" stroke-width="0.385452"/>
<path d="M210.808 393.903C210.789 394.282 210.916 394.667 211.161 394.963C211.405 395.261 211.765 395.466 212.152 395.533C212.63 395.614 213.141 395.475 213.506 395.168C213.871 394.859 214.08 394.388 214.062 393.922" fill="#A44040"/>
<path d="M210.808 393.903C210.789 394.282 210.916 394.667 211.161 394.963C211.405 395.261 211.765 395.466 212.152 395.533C212.63 395.614 213.141 395.475 213.506 395.168C213.871 394.859 214.08 394.388 214.062 393.922" stroke="black" stroke-width="0.304634"/>
<path d="M205.57 402.403C205.518 403.082 205.807 403.778 206.329 404.234C206.851 404.691 207.595 404.9 208.29 404.784C208.87 404.686 209.408 404.368 209.76 403.913C210.114 403.456 210.278 402.867 210.208 402.302" stroke="black" stroke-width="0.771985" stroke-linecap="round"/>
<path d="M197.059 389.504C196.864 390.051 196.449 390.494 196.07 390.943C195.882 391.165 195.698 391.396 195.55 391.648C195.404 391.901 195.294 392.176 195.26 392.464C195.207 392.929 195.366 393.408 195.661 393.78C195.957 394.153 196.382 394.42 196.844 394.564C197.305 394.708 197.801 394.734 198.283 394.673C198.764 394.613 199.231 394.468 199.676 394.279C201.661 393.438 203.136 391.788 204.908 390.58C205.666 390.064 206.484 389.626 207.177 389.031C207.523 388.732 207.836 388.396 208.075 388.011C208.312 387.627 208.473 387.194 208.506 386.747C208.536 386.33 208.454 385.908 208.281 385.525C208.11 385.141 207.849 384.797 207.534 384.511C206.904 383.939 206.064 383.61 205.21 383.484C203.5 383.229 201.783 383.737 200.084 384.057C199.583 384.151 199.075 384.231 198.597 384.404C198.119 384.576 197.666 384.855 197.386 385.268C197.182 385.569 197.081 385.927 197.048 386.285C197.015 386.645 197.045 387.006 197.089 387.363C197.132 387.721 197.185 388.079 197.198 388.439C197.21 388.799 197.18 389.165 197.059 389.504Z" fill="#201717"/>
<path d="M342.524 531.272C325.787 532.456 373.65 546.001 381.933 547.219C385.563 546.649 368.811 536.258 368.811 536.258C368.811 536.258 359.331 530.084 342.524 531.272Z" fill="#009BA0" fill-opacity="0.992157"/>
<path d="M384.492 459.425C370.038 466.411 392.079 499.269 393.925 505.373C398.56 495.097 400.309 482.929 396.67 472.52C394.726 466.96 389.924 456.801 384.492 459.425Z" fill="#009BA0" fill-opacity="0.992157"/>
<path d="M448.103 520.675C439.546 518.052 420.369 530.554 416.258 543.857C426.279 542.492 431.974 538.697 438.223 533.69C442.509 530.255 453.41 522.303 448.103 520.675Z" fill="#009BA0" fill-opacity="0.992157"/>
<path d="M353.01 488.778C349.369 490.858 352.312 497.827 355.143 500.864C380.61 528.175 379.402 527.355 393.377 541.194C395.551 535.382 393.611 522.94 388.44 516.008C376.68 500.244 366.001 481.36 353.01 488.778Z" fill="#009BA0" fill-opacity="0.992157"/>
<path d="M414.522 473.519C403.735 490.432 399.817 512.631 408.711 531.095C421.156 534.473 426.258 485.079 414.522 473.519Z" fill="#009BA0" fill-opacity="0.992157"/>
<path d="M343.976 533.574C351.945 534.131 359.818 535.952 367.184 538.939C374.506 541.911 381.326 546.033 387.292 551.098" stroke="black" stroke-linecap="round"/>
<path d="M357.719 492.454C364.991 497.515 371.524 503.565 377.065 510.371C387.692 523.424 394.592 539.278 396.812 555.745" stroke="black" stroke-linecap="round"/>
<path d="M386.493 464.581C387.797 469.233 388.925 473.93 389.874 478.66C391.646 487.497 392.792 496.439 393.925 505.371C395.755 519.799 397.558 534.229 399.332 548.662" stroke="black" stroke-linecap="round"/>
<path d="M414.788 482.027C414.382 489.431 413.727 496.821 412.823 504.184C411.718 513.19 410.242 522.149 408.711 531.096C407.201 539.913 405.637 548.72 404.017 557.519" stroke="black" stroke-linecap="round"/>
<path d="M446.473 522.633C438.852 525.1 431.746 529.039 425.698 534.153C419.171 539.673 413.886 546.557 410.313 554.194" stroke="black" stroke-miterlimit="3.6" stroke-linecap="round"/>
<path d="M398.672 543.012C397.906 562.398 393.793 553.638 385.991 549.969C389.286 559.564 391.482 563.503 383.93 567.813C375.619 572.556 378.83 587.564 385.188 593.584C391.526 599.584 405.158 599.958 411.802 594.273C418.467 588.57 419.412 572.552 414.317 568.585C407.988 563.656 407.594 563.899 413.982 546.652C402.512 569.601 401.678 550.741 398.672 543.012H398.672Z" fill="#FFB201"/>
<path d="M728.021 574.309C741.241 573.484 788.183 586.197 766.448 506.247C759.792 481.767 755.592 486.163 756.841 461.389C758.202 434.352 717.88 364.969 709.342 405.702C700.803 446.436 700.186 440.817 691.196 456.748C668.793 496.444 699.57 505.648 685.616 517.663C660.494 539.294 702.402 575.905 728.021 574.309Z" fill="#FFB201"/>
<path d="M728.52 438.949H726.067V597.513H728.52V438.949Z" fill="black"/>
<path d="M727.01 477.487C732.579 476.596 737.777 473.688 741.351 469.467C744.955 465.208 746.873 459.65 746.634 454.154" stroke="black" stroke-width="2" stroke-linecap="round" stroke-linejoin="round"/>
<path d="M728.207 543.887C736.886 542.216 744.561 536.27 748.136 528.45C750.366 523.572 751.039 518.042 750.042 512.798" stroke="black" stroke-width="2" stroke-linecap="round" stroke-linejoin="round"/>
<path d="M727.452 500.563C720.296 501.044 712.976 498.312 708.012 493.308C702.777 488.032 700.292 480.328 701.493 473.112" stroke="black" stroke-width="2" stroke-linecap="round" stroke-linejoin="round"/>
<path d="M600.917 596.902C591.774 562.936 554.71 535.8 556.616 504.232C562.9 484.581 596.611 490.908 599.177 504.76C608.499 555.093 607.322 596.902 607.322 596.902H600.917Z" fill="#017C7F"/>
<g filter="url(#filter1_f)">
<path d="M607.321 596.902C607.925 549.173 587.974 503.773 593.16 460.197C597.526 435.956 622.332 441.739 639.265 452.353C683.203 490.685 646.444 558.981 627.869 596.902H607.321Z" fill="#009BA0"/>
</g>
<path d="M619.347 596.369C631.235 567.87 635.361 536.386 631.199 505.923C628.647 487.242 623.02 468.957 614.594 451.963" stroke="black" stroke-width="2" stroke-linecap="round"/>
<path d="M619.398 597.029C619.398 597.029 641.339 528.093 669.175 507.488C683.747 496.7 706.593 479.134 722.802 495.375C738.035 510.638 715.029 534.358 690.449 549.983C643.919 579.561 645.612 596.902 645.612 596.902C636.586 597.097 628.414 597.004 619.398 597.029Z" fill="#FFB201"/>
<path d="M628.289 596.343C637.891 570.775 653.391 547.293 673.337 528.098C682.844 518.948 693.347 510.763 704.616 503.724" stroke="black" stroke-width="2" stroke-linecap="round"/>
<path d="M490.016 202.712H326.535C315.854 202.712 307.194 211.078 307.194 221.397V321.894C307.194 332.214 315.854 340.579 326.535 340.579H490.016C500.697 340.579 509.356 332.214 509.356 321.894V221.397C509.356 211.078 500.697 202.712 490.016 202.712Z" fill="black"/>
<path d="M478.719 194.67H315.238C304.555 194.67 295.896 203.036 295.896 213.355V313.852C295.896 324.172 304.555 332.537 315.238 332.537H478.719C489.4 332.537 498.058 324.172 498.058 313.852V213.355C498.058 203.036 489.4 194.67 478.719 194.67Z" fill="white" stroke="black" stroke-opacity="0.992157" stroke-width="2"/>
<path d="M336.11 212.009H316.472C313.686 212.009 311.427 214.192 311.427 216.884V235.857C311.427 238.549 313.686 240.731 316.472 240.731H336.11C338.898 240.731 341.156 238.549 341.156 235.857V216.884C341.156 214.192 338.898 212.009 336.11 212.009Z" fill="#FFB201"/>
<path d="M362.625 238.552C374.977 236.619 386.581 230.48 394.92 221.465C395.757 220.56 396.571 219.614 397.118 218.52C397.664 217.427 397.925 216.16 397.61 214.984C397.423 214.282 397.035 213.634 396.51 213.116C395.985 212.598 395.327 212.21 394.615 211.981C393.192 211.523 391.584 211.718 390.257 212.395C388.93 213.073 387.881 214.205 387.208 215.5C386.535 216.796 386.224 218.249 386.173 219.698C386.095 221.894 386.609 224.104 387.629 226.067C388.65 228.03 390.175 229.744 392.015 231.034C395.697 233.613 400.621 234.394 405.011 233.249C409.975 231.956 413.955 228.496 418.192 225.686C420.312 224.281 422.557 223.01 425.008 222.263C427.46 221.517 430.142 221.32 432.598 222.055C434.439 222.606 436.087 223.658 437.521 224.901C438.955 226.145 440.194 227.583 441.419 229.021C442.642 230.459 443.862 231.909 445.268 233.185C446.672 234.46 448.277 235.563 450.09 236.195C453.332 237.325 457.14 236.794 459.917 234.825C462.695 232.855 464.362 229.505 464.219 226.179" stroke="#FFB201" stroke-width="3" stroke-linecap="round"/>
<path d="M472.491 251.576H319.2C316.414 251.576 314.154 253.758 314.154 256.451V310.309C314.154 313.001 316.414 315.184 319.2 315.184H472.491C475.277 315.184 477.535 313.001 477.535 310.309V256.451C477.535 253.758 475.277 251.576 472.491 251.576Z" fill="#C7D2F2"/>
<path d="M463.136 264.735H327.713C326.099 264.735 324.791 265.999 324.791 267.558C324.791 269.118 326.099 270.382 327.713 270.382H463.136C464.75 270.382 466.059 269.118 466.059 267.558C466.059 265.999 464.75 264.735 463.136 264.735Z" fill="white"/>
<path d="M463.136 281.052H327.713C326.099 281.052 324.791 282.316 324.791 283.876C324.791 285.435 326.099 286.699 327.713 286.699H463.136C464.75 286.699 466.059 285.435 466.059 283.876C466.059 282.316 464.75 281.052 463.136 281.052Z" fill="white"/>
<path d="M462.892 295.945H327.958C326.21 295.945 324.791 297.315 324.791 299.005C324.791 300.695 326.21 302.065 327.958 302.065H462.892C464.64 302.065 466.059 300.695 466.059 299.005C466.059 297.315 464.64 295.945 462.892 295.945Z" fill="white"/>
<path d="M596.309 287.236H432.828C422.146 287.236 413.487 295.601 413.487 305.921V406.417C413.487 416.737 422.146 425.103 432.828 425.103H596.309C606.99 425.103 615.649 416.737 615.649 406.417V305.921C615.649 295.601 606.99 287.236 596.309 287.236Z" fill="black"/>
<path d="M585.012 279.193H421.531C410.849 279.193 402.19 287.558 402.19 297.878V398.374C402.19 408.695 410.849 417.06 421.531 417.06H585.012C595.693 417.06 604.352 408.695 604.352 398.374V297.878C604.352 287.558 595.693 279.193 585.012 279.193Z" fill="white" stroke="black" stroke-opacity="0.992157" stroke-width="2"/>
<path d="M426.265 371.891C426.265 371.891 451.065 325.936 469.671 331.679C484.937 336.391 484.503 365.1 494.941 367.295C521.624 372.907 516.984 317.151 549.644 314.446C557.135 313.825 574.521 340.908 577.715 360.473" stroke="#FFB201" stroke-width="3" stroke-linecap="round"/>
<path d="M427.526 380.419C427.526 380.419 452.157 362.525 466.473 362.9C478.26 363.207 485.899 379.242 497.688 378.984C507.594 378.767 516.08 374.129 523.256 364.336C536.625 346.089 546.554 371.597 555.397 365.735C571.675 354.94 577.185 322.515 574.186 311.466" stroke="#099EA3" stroke-width="3" stroke-linecap="round"/>
<path d="M547.812 322.323C552.166 322.323 555.696 318.913 555.696 314.707C555.696 310.501 552.166 307.091 547.812 307.091C543.459 307.091 539.929 310.501 539.929 314.707C539.929 318.913 543.459 322.323 547.812 322.323Z" fill="#FF0000"/>
<path d="M666.17 240.412C663.443 240.366 660.146 229.461 658.25 227.502C656.354 225.542 645.559 221.884 645.605 219.158C645.651 216.433 656.562 213.137 658.522 211.243C660.483 209.348 664.144 198.559 666.871 198.605C669.598 198.65 672.895 209.556 674.79 211.515C676.686 213.475 687.481 217.133 687.435 219.859C687.389 222.584 676.478 225.879 674.518 227.774C672.557 229.669 668.897 240.458 666.17 240.412Z" fill="#F28DFD"/>
<defs>
<filter id="filter0_f" x="-64.804" y="-127.717" width="1023.81" height="1023.96" filterUnits="userSpaceOnUse" color-interpolation-filters="sRGB">
<feFlood flood-opacity="0" result="BackgroundImageFix"/>
<feBlend mode="normal" in="SourceGraphic" in2="BackgroundImageFix" result="shape"/>
<feGaussianBlur stdDeviation="0.00207491" result="effect1_foregroundBlur"/>
</filter>
<filter id="filter1_f" x="592.295" y="443.19" width="67.6944" height="153.715" filterUnits="userSpaceOnUse" color-interpolation-filters="sRGB">
<feFlood flood-opacity="0" result="BackgroundImageFix"/>
<feBlend mode="normal" in="SourceGraphic" in2="BackgroundImageFix" result="shape"/>
<feGaussianBlur stdDeviation="0.001551" result="effect1_foregroundBlur"/>
</filter>
<clipPath id="clip0">
<rect width="825" height="759" fill="white"/>
</clipPath>
</defs>
</svg>
