<svg width="265" height="265" viewBox="0 0 265 265" fill="none" xmlns="http://www.w3.org/2000/svg">
<g clip-path="url(#clip0)">
<path d="M168.73 206.036C166.282 205.472 163.838 207 163.273 209.449L158.007 232.317H10.2689L24.1979 171.84H136.75C139.263 171.84 141.301 169.803 141.301 167.289C141.301 164.776 139.263 162.739 136.75 162.739H24.1979L10.2689 102.262H158.007L164.715 131.387C165.279 133.836 167.722 135.365 170.171 134.8C172.621 134.236 174.149 131.793 173.584 129.344L166.299 97.7105L182.089 29.1536C182.4 27.8023 182.078 26.3837 181.215 25.2982C180.352 24.2127 179.041 23.5811 177.655 23.5811H20.5761C18.4561 23.5811 16.6176 25.0446 16.1413 27.1106L0.116496 96.69C-0.0382298 97.3617 -0.0382298 98.0607 0.116496 98.7324L15.9064 167.289L0.116496 235.846C-0.194776 237.197 0.127418 238.616 0.990243 239.702C1.85307 240.787 3.16429 241.419 4.55076 241.419H161.629C163.749 241.419 165.587 239.955 166.063 237.889L172.143 211.493C172.707 209.043 171.179 206.601 168.73 206.036ZM24.1979 32.6838H171.936L158.007 93.1604H10.2689L24.1979 32.6838Z" fill="#EFFDFF"/>
<path d="M38.2245 56.5517H116.494C119.007 56.5517 121.045 54.5142 121.045 52.001C121.045 49.4877 119.007 47.4502 116.494 47.4502H38.2245C35.7112 47.4502 33.6737 49.4877 33.6737 52.001C33.6737 54.5142 35.7112 56.5517 38.2245 56.5517Z" fill="#EFFDFF"/>
<path d="M30.0338 78.394H108.303C110.817 78.394 112.854 76.3565 112.854 73.8432C112.854 71.33 110.817 69.2925 108.303 69.2925H30.0338C27.5206 69.2925 25.483 71.33 25.483 73.8432C25.483 76.3565 27.5206 78.394 30.0338 78.394Z" fill="#EFFDFF"/>
<path d="M121.045 191.157C121.045 188.644 119.007 186.606 116.494 186.606H38.2245C35.7112 186.606 33.6737 188.644 33.6737 191.157C33.6737 193.67 35.7112 195.708 38.2245 195.708H116.494C119.007 195.708 121.045 193.67 121.045 191.157Z" fill="#EFFDFF"/>
<path d="M30.0338 208.449C27.5206 208.449 25.483 210.486 25.483 212.999C25.483 215.513 27.5206 217.55 30.0338 217.55H108.303C110.817 217.55 112.854 215.513 112.854 212.999C112.854 210.486 110.817 208.449 108.303 208.449H30.0338Z" fill="#EFFDFF"/>
<path d="M112.853 121.579C112.853 119.066 110.816 117.028 108.303 117.028H30.0338C27.5206 117.028 25.483 119.066 25.483 121.579C25.483 124.092 27.5206 126.13 30.0338 126.13H108.303C110.816 126.13 112.853 124.092 112.853 121.579Z" fill="#EFFDFF"/>
<path d="M38.2245 147.972H116.494C119.007 147.972 121.045 145.935 121.045 143.421C121.045 140.908 119.007 138.871 116.494 138.871H38.2245C35.7112 138.871 33.6737 140.908 33.6737 143.421C33.6737 145.935 35.7112 147.972 38.2245 147.972Z" fill="#EFFDFF"/>
<path d="M131.144 60.8793C131.463 62.4751 132.61 63.7791 134.152 64.2991C134.628 64.4593 135.118 64.5375 135.605 64.5375C136.698 64.5375 137.773 64.1437 138.617 63.3992L154.089 49.7476C155.973 48.085 156.153 45.2089 154.49 43.3243C152.827 41.4403 149.952 41.2601 148.067 42.9232L138.519 51.3476L138.249 49.9933C137.755 47.5292 135.361 45.9304 132.893 46.4237C130.429 46.917 128.831 49.3143 129.324 51.779L131.144 60.8793Z" fill="#EFFDFF"/>
<path d="M135.835 135.159C136.06 135.159 136.286 135.143 136.511 135.109C138.12 134.867 139.479 133.784 140.072 132.269L147.603 113.059C148.52 110.719 147.367 108.078 145.027 107.161C142.687 106.242 140.047 107.397 139.129 109.737L134.482 121.592L133.622 120.51C132.059 118.543 129.196 118.216 127.228 119.78C125.261 121.344 124.934 124.206 126.498 126.174L132.273 133.44C133.144 134.535 134.46 135.159 135.835 135.159Z" fill="#EFFDFF"/>
<path d="M136.333 156.91C137.204 158.005 138.52 158.629 139.895 158.629C140.119 158.629 140.345 158.613 140.571 158.579C142.18 158.337 143.538 157.254 144.132 155.739L151.662 136.529C152.58 134.189 151.426 131.549 149.087 130.631C146.746 129.712 144.106 130.867 143.189 133.207L138.542 145.062L137.682 143.981C136.118 142.013 133.256 141.686 131.288 143.25C129.321 144.814 128.993 147.676 130.557 149.644L136.333 156.91Z" fill="#EFFDFF"/>
<path d="M263.768 108.43L240.565 83.6947C239.739 82.8142 238.598 82.2985 237.391 82.2597C236.179 82.2257 235.013 82.6637 234.132 83.489L147.18 165.059C146.622 165.582 146.205 166.236 145.968 166.963L135.002 200.501C134.485 202.081 134.871 203.816 136.009 205.028C136.881 205.957 138.087 206.466 139.328 206.466C139.706 206.466 140.087 206.418 140.463 206.322L174.632 197.519C175.372 197.328 176.053 196.954 176.61 196.431L263.563 114.861C265.396 113.142 265.488 110.263 263.768 108.43ZM146.234 195.436L152.231 177.094L164.921 190.622L146.234 195.436ZM173.702 186.68L156.726 168.583L237.041 93.2403L254.018 111.337L173.702 186.68Z" fill="#FFD063"/>
</g>
<defs>
<clipPath id="clip0">
<rect width="265" height="265" fill="white"/>
</clipPath>
</defs>
</svg>
