<svg width="192" height="192" viewBox="0 0 192 192" fill="none" xmlns="http://www.w3.org/2000/svg">
<path d="M96 0C43.0656 0 0 43.0656 0 96C0 148.934 43.0656 192 96 192C148.934 192 192 148.934 192 96C192 43.0656 148.934 0 96 0ZM38.4 99.2C38.4 100.97 36.9696 102.4 35.2 102.4C33.4304 102.4 32 100.97 32 99.2C32 76.2624 50.6624 57.6 73.6 57.6H111.76L84.5184 37.7888C83.088 36.752 82.7712 34.7488 83.8112 33.3216C84.8448 31.8912 86.8448 31.5744 88.2784 32.6144L127.04 60.8L88.2816 88.9888C87.712 89.4016 87.056 89.6 86.4032 89.6C85.4112 89.6 84.4384 89.1424 83.8112 88.2816C82.7712 86.8544 83.0848 84.8512 84.5184 83.8144L111.76 64H73.6C54.192 64 38.4 79.792 38.4 99.2ZM115.2 134.4H77.04L104.282 154.211C105.712 155.248 106.029 157.251 104.989 158.678C104.365 159.542 103.389 159.997 102.397 159.997C101.744 159.997 101.088 159.795 100.518 159.386L61.76 131.2L100.518 103.011C101.949 101.971 103.949 102.285 104.986 103.718C106.026 105.146 105.712 107.149 104.278 108.186L77.04 128H115.2C134.608 128 150.4 112.208 150.4 92.8C150.4 91.0304 151.83 89.6 153.6 89.6C155.37 89.6 156.8 91.0304 156.8 92.8C156.8 115.738 138.138 134.4 115.2 134.4Z" fill="#89E6F6"/>
</svg>
