<svg width="1920" height="497" viewBox="0 0 1920 497" fill="none" xmlns="http://www.w3.org/2000/svg">
<path fill-rule="evenodd" clip-rule="evenodd" d="M-189 46.5087L-133.465 85.2659C-79.845 124.023 29.31 201.538 138.465 240.295C249.535 279.052 358.69 279.052 467.845 232.543C577 186.035 686.155 131.775 795.31 85.2659C904.465 38.7572 1015.53 38.7572 1124.69 85.2659C1233.84 131.775 1343 186.035 1452.16 232.543C1561.31 279.052 1670.46 279.052 1781.53 232.543C1890.69 186.035 1999.84 93.0174 2053.46 46.5087L2109 0V460H2053.46C1999.84 460 1890.69 460 1781.53 460C1670.46 460 1561.31 460 1452.16 460C1343 460 1233.84 460 1124.69 460C1015.53 460 904.465 460 795.31 460C686.155 460 577 460 467.845 460C358.69 460 249.535 460 138.465 460C29.31 460 -79.845 460 -133.465 460H-189V46.5087Z" fill="#89E6F6"/>
<path fill-rule="evenodd" clip-rule="evenodd" d="M-189 153.333L-133.465 185.278C-79.845 217.222 29.31 281.111 138.465 313.056C249.535 345 358.69 345 467.845 306.667C577 268.333 686.155 191.667 795.31 153.333C904.465 115 1015.53 115 1124.69 153.333C1233.84 191.667 1343 268.333 1452.16 306.667C1561.31 345 1670.46 345 1781.53 306.667C1890.69 268.333 1999.84 191.667 2053.46 153.333L2109 115V460H2053.46C1999.84 460 1890.69 460 1781.53 460C1670.46 460 1561.31 460 1452.16 460C1343 460 1233.84 460 1124.69 460C1015.53 460 904.465 460 795.31 460C686.155 460 577 460 467.845 460C358.69 460 249.535 460 138.465 460C29.31 460 -79.845 460 -133.465 460H-189V153.333Z" fill="#3EA9BE"/>
<path fill-rule="evenodd" clip-rule="evenodd" d="M-189 214.367L-133.465 246.26C-79.845 278.154 29.31 341.942 138.465 373.836C249.535 405.73 358.69 405.73 467.845 367.457C577 329.185 686.155 252.639 795.31 214.367C904.465 176.094 1015.53 176.094 1124.69 214.367C1233.84 252.639 1343 329.185 1452.16 367.457C1561.31 405.73 1670.47 405.73 1781.54 367.457C1890.69 329.185 2007.38 252.639 2061 214.366C2114.62 176.094 2118.54 176.094 2118.54 176.094V497H1956C1902.38 497 1781.54 497 1781.54 497H1452.16H1124.69H795.31H467.845H138.465C138.465 497 -79.845 497 -133.465 497H-189V214.367Z" fill="#007EA2"/>
</svg>
