<svg width="220" height="220" viewBox="0 0 220 220" fill="none" xmlns="http://www.w3.org/2000/svg">
<g clip-path="url(#clip0)">
<path d="M153.784 0.47998C130.314 0.47998 109.658 12.7548 97.8958 31.2207C103.489 38.3204 105.581 47.8194 102.979 56.9005C100.598 65.2097 94.7972 71.6355 87.4374 75.0316C89.3537 76.825 90.9879 78.9968 92.196 81.4062C93.3878 80.4555 94.7064 79.7175 96.0718 79.1981C103.164 76.4965 111.207 79.8151 114.295 86.8225L117.615 94.3521C120.634 95.0609 123.44 96.5348 125.769 98.6712C128.774 101.427 130.745 105.067 131.418 109.05H149.988C157.899 109.05 164.335 115.487 164.335 123.398C164.335 125.639 163.812 127.927 162.689 130.06C163.237 130.698 163.737 131.378 164.186 132.094C195.773 127.089 220 99.6703 220 66.6966C220 30.1848 190.296 0.47998 153.784 0.47998ZM161.812 88.0807L148.2 71.1998C147.171 69.9248 146.61 68.3351 146.61 66.6971V32.0194C146.61 28.0575 149.822 24.8456 153.784 24.8456C157.746 24.8456 160.958 28.0575 160.958 32.0194V64.1647L172.981 79.0748C175.468 82.159 174.984 86.6752 171.899 89.1621C168.817 91.6476 164.3 91.1664 161.812 88.0807Z" fill="#89E6F6"/>
<path d="M109.277 205.582L90.5756 153.102C88.3986 146.994 87.9935 144.718 80.8881 142.44L71.775 139.519L73.7397 132.66C69.8433 132.004 66.5477 129.377 65.0115 125.779L51.4655 93.9224L72.1112 120.201C73.8602 122.427 76.6479 123.721 79.6136 123.486L97.473 122.065C97.3501 122.488 97.2807 122.935 97.2807 123.398C97.2807 126.04 99.4219 128.181 102.063 128.181C113.034 128.181 139.155 128.181 149.987 128.181C152.642 128.181 154.77 126.023 154.77 123.398C154.77 120.756 152.628 118.616 149.987 118.616C146.559 118.616 122.443 118.616 119.142 118.616C121.131 116.872 122.307 114.252 122.081 111.413C121.702 106.642 117.527 103.083 112.755 103.461L111.232 103.582C106.433 92.6995 107.813 95.8283 105.544 90.6813C104.485 88.2809 101.655 87.169 99.2378 88.2345C96.8211 89.3006 95.7255 92.1237 96.7915 94.5408C98.1612 97.6475 99.4731 100.622 101.133 104.386L82.871 105.839L65.0962 83.2143L84.0465 96.6882C84.4903 95.1391 84.5769 94.8655 84.6883 94.3868C86.2331 87.74 82.3167 80.957 75.6579 79.0497C72.5919 78.1711 57.5852 73.8721 54.5206 72.994C47.2664 70.9151 39.7956 75.479 38.2987 82.8418L25.5547 145.53C24.7646 149.418 26.1209 153.432 29.1148 156.045H23.5828C23.1782 152.85 14.6988 85.8925 14.2918 82.6763C13.7939 78.746 10.2032 75.9649 6.27339 76.4604C2.3431 76.9583 -0.439856 80.5481 0.0575277 84.4788L10.1429 164.12C10.5973 167.705 13.6466 170.392 17.2598 170.392H39.9061V194.061L24.3155 206.788C21.2466 209.293 20.7893 213.812 23.2949 216.881C25.801 219.951 30.3195 220.408 33.3889 217.902L47.0799 206.726L60.7709 217.902C63.8398 220.407 68.3593 219.951 70.8649 216.881C73.3705 213.812 72.9132 209.293 69.8443 206.788L54.2542 194.061V170.392H74.6565L89.6851 212.564C91.613 217.974 97.5615 220.797 102.972 218.87C108.389 216.939 111.2 210.977 109.277 205.582Z" fill="#EFFDFF"/>
<path d="M70.1271 67.3865C80.2838 70.2962 90.8747 64.4208 93.7839 54.2661C96.6936 44.1104 90.8192 33.5185 80.6635 30.6088C70.5073 27.6996 59.9159 33.574 57.0067 43.7292C54.096 53.8883 59.9747 64.4782 70.1271 67.3865Z" fill="#EFFDFF"/>
<path d="M149.988 133.771H102.064C98.102 133.771 94.89 136.982 94.89 140.944C94.89 144.906 98.102 148.118 102.064 148.118H142.814V204.693H126.026C122.064 204.693 118.852 207.905 118.852 211.867C118.852 215.829 122.064 219.041 126.026 219.041H149.988C153.95 219.041 157.161 215.829 157.161 211.867V140.944C157.161 136.982 153.95 133.771 149.988 133.771Z" fill="#7B5BF6"/>
</g>
<defs>
<clipPath id="clip0">
<rect width="220" height="220" fill="white"/>
</clipPath>
</defs>
</svg>
